<svg width="64" height="64" viewBox="0 0 64 64" fill="none" xmlns="http://www.w3.org/2000/svg">
  <defs>
    <linearGradient id="hat" x1="30" y1="14" x2="35" y2="26" gradientUnits="userSpaceOnUse">
      <stop stop-color="#fcd34d"/>
      <stop offset="1" stop-color="#f59e0b"/>
    </linearGradient>
    <linearGradient id="face" x1="23" y1="23" x2="41" y2="45" gradientUnits="userSpaceOnUse">
      <stop stop-color="#f8fafc"/>
      <stop offset="1" stop-color="#dbe4f0"/>
    </linearGradient>
  </defs>

  <!-- Side ruffles -->
  <circle cx="18.5" cy="34.5" r="6.3" fill="#ef4444"/>
  <circle cx="45.5" cy="34.5" r="6.3" fill="#ef4444"/>

  <!-- Hat -->
  <path d="M25.5 20.5C27.2 15.8 36.8 15.8 38.5 20.5C35.9 22.4 33.8 23.3 32 23.3C30.2 23.3 28.1 22.4 25.5 20.5Z" fill="url(#hat)" stroke="#fbbf24" stroke-width="1"/>
  <circle cx="32" cy="14.8" r="2.6" fill="#fde68a"/>

  <!-- Main Face -->
  <circle cx="32" cy="34" r="13.6" fill="url(#face)" stroke="#cbd5e1" stroke-width="1.3"/>
  <circle cx="27.3" cy="31.6" r="2.2" fill="#0f172a"/>
  <circle cx="36.7" cy="31.6" r="2.2" fill="#0f172a"/>
  <circle cx="32" cy="36.1" r="3.8" fill="#dc2626" stroke="#ef4444" stroke-width="1"/>

  <!-- Smile -->
  <path d="M26.8 41.9C28.8 44.8 30.6 46.2 32 46.2C33.4 46.2 35.2 44.8 37.2 41.9" stroke="#991b1b" stroke-width="2.1" stroke-linecap="round"/>
  <path d="M28.9 43.2C30.2 44.4 31.3 45 32 45C32.7 45 33.8 44.4 35.1 43.2" stroke="#f87171" stroke-width="1.3" stroke-linecap="round"/>

  <!-- Cheeks -->
  <circle cx="23.8" cy="37.8" r="1.8" fill="#fda4af" fill-opacity="0.85"/>
  <circle cx="40.2" cy="37.8" r="1.8" fill="#fda4af" fill-opacity="0.85"/>
</svg>
